<svg width="80" height="80" viewBox="0 0 80 80" fill="none" xmlns="http://www.w3.org/2000/svg">
<path d="M13.3201 17.36V28.61H28.8001V13.3H17.3801C16.3033 13.3 15.2706 13.7278 14.5092 14.4892C13.7478 15.2506 13.3201 16.2833 13.3201 17.36Z" fill="white"/>
<path d="M50.76 66.18H62.14C62.4019 66.1767 62.6629 66.15 62.92 66.1C63.696 65.9351 64.4078 65.5497 64.97 64.99C65.7297 64.2277 66.1574 63.1962 66.16 62.12V50.71H50.76V66.18Z" fill="white"/>
<path d="M47.6299 50.71H31.9399V66.18H47.6299V50.71Z" fill="white"/>
<path d="M66.19 31.75H50.76V47.44H66.19V31.75Z" fill="white"/>
<path d="M47.6299 13.3H31.9399V28.61H47.6299V13.3Z" fill="white"/>
<path d="M28.8001 31.75H13.3201V47.44H28.8001V31.75Z" fill="white"/>
<path d="M68.14 13.09C67.8457 12.6927 67.5105 12.3274 67.14 12C65.8886 10.8146 64.2604 10.1066 62.54 10C62.39 10 62.25 10 62.1 10H17.38C17.23 10 17.09 10 16.94 10C15.0634 10.1073 13.299 10.9284 12.0086 12.2951C10.7181 13.6618 9.99949 15.4704 10 17.35V62.13C10.0026 64.0838 10.78 65.9569 12.1615 67.3385C13.5431 68.72 15.4162 69.4974 17.37 69.5H62.15C64.1048 69.4947 65.9778 68.7152 67.3591 67.332C68.7404 65.9488 69.5174 64.0748 69.52 62.12V17.36C69.5164 15.8276 69.0339 14.3347 68.14 13.09ZM28.8 47.43H13.32V31.75H28.8V47.43ZM28.8 28.61H13.32V17.36C13.32 16.2832 13.7477 15.2505 14.5091 14.4891C15.2705 13.7277 16.3032 13.3 17.38 13.3H28.8V28.61ZM47.63 66.18H31.92V50.71H47.63V66.18ZM47.63 28.61H31.92V13.3H47.63V28.61ZM66.2 62.12C66.1974 63.1962 65.7697 64.2277 65.01 64.99C64.4369 65.5564 63.7102 65.9423 62.92 66.1C62.6498 66.1524 62.3752 66.1792 62.1 66.18H50.76V50.71H66.2V62.12ZM66.2 47.43H50.76V31.75H66.2V47.43Z" fill="black"/>
</svg>
