<svg width="80" height="80" viewBox="0 0 80 80" fill="none" xmlns="http://www.w3.org/2000/svg">
<path d="M13.2617 12.5305V23.0205L27.4217 12.5305H13.2617Z" fill="white"/>
<path d="M27.4217 12.5305L13.2617 23.0205V53.2305L30.2817 12.5305H27.4217Z" fill="#FF3833"/>
<path d="M67.5718 66.8405V36.2805L40.8218 66.8405H67.5718Z" fill="#FF3833"/>
<path d="M67.5718 35.0005V12.5305H56.5718L46.3818 43.2705L67.5718 35.0005Z" fill="#E87E7E"/>
<path d="M13.2617 58.4205V66.8405H38.5717L46.3817 43.2705L13.2617 58.4205Z" fill="#E87E7E"/>
<path d="M46.3818 43.2705L38.5718 66.8405H40.8218L67.5718 36.2805V35.0005L46.3818 43.2705Z" fill="white"/>
<path d="M56.5717 12.5305H30.2817L13.2617 53.2305V58.4205L46.3817 43.2705L56.5717 12.5305Z" fill="#E20736"/>
<path d="M70.9817 34.6505C70.7378 34.4157 70.4382 34.2466 70.1112 34.1592C69.7841 34.0717 69.4402 34.0687 69.1117 34.1505V11.0305H58.6117C58.6519 10.6635 58.5554 10.2945 58.3407 9.99426C58.1259 9.69397 57.8079 9.48344 57.4476 9.40295C57.0873 9.32247 56.7099 9.3777 56.3878 9.55805C56.0657 9.73841 55.8214 10.0312 55.7017 10.3805L55.4817 11.0305H32.3717C32.3724 10.7342 32.3073 10.4414 32.181 10.1734C32.0548 9.90529 31.8706 9.66863 31.6417 9.48048C31.2896 9.1792 30.8439 9.00951 30.3806 9.00039C29.9173 8.99127 29.4653 9.14329 29.1017 9.43048L26.9817 11.0305H11.7617V22.2605L8.67165 24.5505C8.50205 24.6628 8.35707 24.8085 8.24554 24.9786C8.134 25.1488 8.05824 25.3398 8.02286 25.5401C7.98748 25.7405 7.99322 25.9459 8.03973 26.144C8.08625 26.342 8.17256 26.5285 8.29342 26.6922C8.41429 26.8558 8.56718 26.9932 8.74279 27.0959C8.9184 27.1986 9.11307 27.2645 9.31495 27.2896C9.51684 27.3147 9.72171 27.2984 9.91713 27.2418C10.1125 27.1853 10.2944 27.0895 10.4517 26.9605L11.7617 25.9605V52.9105L9.76165 57.6705C9.57387 58.0403 9.50571 58.4594 9.56663 58.8697C9.62755 59.28 9.81452 59.6612 10.1017 59.9605C10.3101 60.1848 10.5673 60.3583 10.8533 60.4675C11.1394 60.5767 11.4468 60.6188 11.7517 60.5905V68.3205H36.4917L36.4317 68.5005V68.7505C36.3932 69.2045 36.5109 69.658 36.7653 70.036C37.0197 70.414 37.3955 70.6938 37.8306 70.8291C38.2657 70.9644 38.7339 70.9471 39.1578 70.7801C39.5817 70.613 39.9359 70.3062 40.1617 69.9105L41.6217 68.3705H69.0717V39.4905L71.2717 37.1805L71.3817 36.9105C71.555 36.5383 71.6097 36.1217 71.5381 35.7174C71.4665 35.3131 71.2723 34.9406 70.9817 34.6505V34.6505ZM66.1117 35.3305L48.2117 42.6305L57.6917 14.0305H66.1117V35.3305ZM65.6917 38.7405L40.8117 64.8405L46.9817 46.3705L65.6917 38.7405ZM44.5217 44.1205L14.7617 56.2505V53.5305L31.2817 14.0305H54.4917L44.5217 44.1205ZM14.7617 14.0305H22.8717L14.7617 20.0305V14.0305ZM14.7617 23.7705L27.9117 14.0305H28.0317L14.7617 45.7605V23.7705ZM14.7617 65.3405V59.4905L43.2817 47.9105L37.4817 65.3405H14.7617ZM66.0717 65.3405H44.4717L66.0717 42.6505V65.3405Z" fill="black"/>
</svg>
