<svg width="80" height="80" viewBox="0 0 80 80" fill="none" xmlns="http://www.w3.org/2000/svg">
<rect width="80" height="80" rx="13" fill="#95BEFA"/>
<path d="M62.1401 13.32H42.1401L66.2401 37.42V17.42C66.2455 16.8801 66.1431 16.3446 65.9389 15.8447C65.7348 15.3449 65.433 14.8908 65.0512 14.509C64.6694 14.1272 64.2153 13.8254 63.7154 13.6212C63.2156 13.4171 62.68 13.3147 62.1401 13.32V13.32Z" fill="#6493E6"/>
<path d="M66.2 62.14V41.8L41.8 66.2H62.14C62.6799 66.2099 63.2165 66.1148 63.72 65.92C64.46 65.6046 65.0902 65.0775 65.5315 64.4049C65.9727 63.7324 66.2053 62.9444 66.2 62.14V62.14Z" fill="#6493E6"/>
<path d="M13.3201 17.3801V37.4501L37.4501 13.3201H17.3801C16.3081 13.3356 15.2844 13.7683 14.5264 14.5264C13.7683 15.2844 13.3356 16.3081 13.3201 17.3801V17.3801Z" fill="#6493E6"/>
<path d="M13.3201 62.14C13.3201 63.2168 13.7478 64.2495 14.5092 65.0109C15.2706 65.7723 16.3033 66.2 17.3801 66.2H37.7501L13.3201 41.77V62.14Z" fill="#6493E6"/>
<path d="M39.77 15.7036L28.4421 27.0315L39.77 38.3593L51.0978 27.0315L39.77 15.7036Z" fill="white"/>
<path d="M39.7707 40.8645L28.4429 52.1923L39.7707 63.5202L51.0986 52.1923L39.7707 40.8645Z" fill="white"/>
<path d="M62.14 10H17.38C15.4244 10 13.5488 10.7762 12.1651 12.158C10.7814 13.5399 10.0026 15.4144 10 17.37V62.15C10.0026 64.1038 10.78 65.9769 12.1615 67.3585C13.5431 68.74 15.4162 69.5174 17.37 69.52H62.15C64.1047 69.5147 65.9778 68.7352 67.3591 67.352C68.7404 65.9688 69.5174 64.0948 69.52 62.14V17.38C69.5174 15.4235 68.739 13.5479 67.3555 12.1645C65.9721 10.781 64.0965 10.0026 62.14 10V10ZM39.77 15.7L51.1 27.03L39.77 38.36L28.44 27.03L39.77 15.7ZM13.32 17.38C13.3355 16.308 13.7682 15.2844 14.5263 14.5263C15.2844 13.7682 16.308 13.3355 17.38 13.32H37.45L13.32 37.45V17.38ZM37.75 66.2H17.38C16.3032 66.2 15.2705 65.7723 14.5091 65.0109C13.7477 64.2495 13.32 63.2168 13.32 62.14V41.77L37.75 66.2ZM39.75 63.52L28.45 52.2L39.77 40.92L51.1 52.2L39.77 63.52H39.75ZM66.18 62.14C66.1869 62.9421 65.9573 63.7285 65.5198 64.4008C65.0822 65.0731 64.4562 65.6015 63.72 65.92C63.2192 66.1284 62.6825 66.2371 62.14 66.24H41.8L66.2 41.84L66.18 62.14ZM66.18 37.42L42.1 13.32H62.1C63.1768 13.32 64.2095 13.7477 64.9709 14.5091C65.7322 15.2705 66.16 16.3032 66.16 17.38L66.18 37.42Z" fill="black"/>
<path d="M62.1401 13.3201C63.2169 13.3201 64.2496 13.7478 65.011 14.5092C65.7724 15.2706 66.2001 16.3033 66.2001 17.3801V37.3801V17.3801C66.2001 16.3033 65.7724 15.2706 65.011 14.5092C64.2496 13.7478 63.2169 13.3201 62.1401 13.3201V13.3201Z" fill="black"/>
<path d="M66.2002 62.14C66.2055 62.9444 65.9729 63.7324 65.5316 64.4049C65.0904 65.0775 64.4602 65.6046 63.7202 65.92C64.4539 65.6073 65.0798 65.0863 65.5206 64.4216C65.9614 63.7569 66.1976 62.9776 66.2002 62.18V41.8V62.14Z" fill="black"/>
<path d="M37.4501 13.3201L13.3201 37.4501L37.4501 13.3201H17.3801C16.7421 13.3253 16.1147 13.483 15.5501 13.7801C16.1147 13.483 16.7421 13.3253 17.3801 13.3201H37.4501Z" fill="black"/>
<path d="M13.3201 41.77L37.7501 66.2L13.3201 41.77Z" fill="black"/>
<path d="M39.78 38.3601L51.11 27.0301L39.78 15.7001L51.1 27.0301L39.78 38.3601Z" fill="black"/>
<path d="M51.1 52.1901L39.78 40.8701L51.1 52.1901L39.78 63.5201L51.1 52.1901Z" fill="black"/>
</svg>
