<svg width="80" height="80" viewBox="0 0 80 80" fill="none" xmlns="http://www.w3.org/2000/svg">
<rect width="80" height="80" rx="13" fill="#F7DA21"/>
<path d="M40.8101 30.0138V21.0138C40.8101 19.2338 40.2822 17.4937 39.2933 16.0137C38.3044 14.5336 36.8987 13.3801 35.2542 12.6989C33.6097 12.0177 31.8001 11.8395 30.0542 12.1867C28.3084 12.534 26.7048 13.3912 25.4461 14.6498C24.1874 15.9085 23.3303 17.5122 22.983 19.258C22.6357 21.0038 22.814 22.8134 23.4951 24.4579C24.1763 26.1025 25.3299 27.5081 26.8099 28.497C28.29 29.486 30.03 30.0138 31.8101 30.0138H40.8101Z" fill="white"/>
<path d="M59.1401 27.4438C60.1945 26.4006 60.9747 25.1129 61.4113 23.6954C61.8479 22.2778 61.9274 20.7744 61.6427 19.3187C61.358 17.863 60.718 16.5003 59.7795 15.3516C58.841 14.203 57.6332 13.3042 56.2635 12.735C54.8938 12.1659 53.4047 11.9441 51.9285 12.0894C50.4524 12.2346 49.0351 12.7425 47.8026 13.5678C46.5701 14.393 45.5607 15.5101 44.8642 16.8196C44.1676 18.1292 43.8055 19.5905 43.8101 21.0738V30.0738H52.8101C53.9863 30.0734 55.151 29.8409 56.2372 29.3896C57.3234 28.9383 58.3099 28.277 59.1401 27.4438V27.4438Z" fill="white"/>
<path d="M16.5601 50.6538C16.5601 59.0638 21.7801 65.7138 29.2701 67.6538V34.1138C21.9201 36.6638 16.5601 43.3238 16.5601 50.6538Z" fill="#F8CD0E"/>
<path d="M50.5601 68.2838C53.2148 68.0601 55.7967 67.3006 58.1497 66.051C60.5027 64.8015 62.578 63.0879 64.2501 61.0138C62.4174 61.4951 60.4908 61.4889 58.6613 60.996C56.8318 60.5031 55.1629 59.5406 53.8201 58.2038L55.9201 56.0838C57.3888 57.5466 59.3719 58.3762 61.4447 58.3949C63.5175 58.4136 65.5152 57.6199 67.0101 56.1838C67.6743 54.4159 68.0131 52.5424 68.0101 50.6538C68.071 48.3446 67.6643 46.047 66.8144 43.899C65.9645 41.7511 64.6889 39.7972 63.0644 38.155C61.4399 36.5127 59.5 35.216 57.3614 34.3428C55.2229 33.4696 52.9298 33.0379 50.6201 33.0738H43.8101V68.2838H50.5601ZM54.9201 43.7338C55.5435 43.7338 56.1529 43.9188 56.6711 44.2654C57.1894 44.6119 57.5931 45.1045 57.8312 45.6807C58.0693 46.2568 58.1311 46.8907 58.0088 47.502C57.8864 48.1133 57.5854 48.6746 57.1439 49.1147C56.7024 49.5548 56.1401 49.8541 55.5284 49.9745C54.9167 50.0949 54.2831 50.0311 53.7077 49.7911C53.1323 49.5512 52.641 49.1459 52.2961 48.6265C51.9511 48.1072 51.7681 47.4972 51.7701 46.8738C51.7701 46.4606 51.8516 46.0515 52.01 45.6698C52.1685 45.2882 52.4006 44.9416 52.6933 44.6499C52.9859 44.3582 53.3332 44.1271 53.7154 43.9699C54.0975 43.8127 54.5069 43.7325 54.9201 43.7338V43.7338Z" fill="#F8CD0E"/>
<path d="M34.01 33.0738C33.4262 33.1229 32.8454 33.203 32.27 33.3138V68.2038C32.8 68.2538 33.35 68.2838 33.9 68.2838H40.81V33.0638H34.01V33.0738Z" fill="#F8CD0E"/>
<path d="M54.92 50.0138C55.543 50.0138 56.1521 49.8291 56.6701 49.4829C57.1881 49.1368 57.5918 48.6448 57.8302 48.0693C58.0687 47.4937 58.131 46.8603 58.0095 46.2493C57.888 45.6382 57.5879 45.077 57.1474 44.6364C56.7069 44.1959 56.1456 43.8959 55.5346 43.7743C54.9235 43.6528 54.2902 43.7152 53.7146 43.9536C53.139 44.192 52.647 44.5957 52.3009 45.1138C51.9548 45.6318 51.77 46.2408 51.77 46.8638C51.77 47.6992 52.1019 48.5005 52.6926 49.0912C53.2834 49.6819 54.0846 50.0138 54.92 50.0138V50.0138Z" fill="black"/>
<path d="M58.51 31.6138C59.5194 31.0646 60.4454 30.3743 61.26 29.5638C62.4716 28.3479 63.4083 26.8863 64.0069 25.2775C64.6054 23.6688 64.8518 21.9503 64.7295 20.2382C64.6072 18.5261 64.119 16.8601 63.2979 15.3528C62.4768 13.8454 61.3419 12.5318 59.9697 11.5005C58.5976 10.4692 57.0201 9.74431 55.3439 9.37471C53.6677 9.00511 51.9317 8.99941 50.2531 9.35801C48.5744 9.71661 46.9923 10.4312 45.6134 11.4534C44.2345 12.4757 43.091 13.7818 42.26 15.2838C41.3538 13.611 40.0628 12.1777 38.4936 11.1021C36.9244 10.0265 35.122 9.33936 33.235 9.09743C31.348 8.8555 29.4305 9.06569 27.6407 9.71066C25.8509 10.3556 24.2401 11.4169 22.9412 12.8069C21.6423 14.1969 20.6925 15.8759 20.1701 17.7052C19.6478 19.5346 19.5679 21.4619 19.937 23.3282C20.3061 25.1945 21.1136 26.9463 22.293 28.4391C23.4724 29.9319 24.9898 31.1228 26.72 31.9138C19.52 35.0138 14.26 41.7138 13.64 49.1738H8V52.1738H13.63C13.9099 57.3556 16.1734 62.2309 19.951 65.7889C23.7287 69.3468 28.7307 71.3145 33.92 71.2838H50.74C61.92 70.4038 71.07 61.1538 71.07 50.6538C71.1192 46.5883 69.9489 42.6014 67.7101 39.2075C65.4713 35.8137 62.2667 33.1686 58.51 31.6138V31.6138ZM29.27 67.6838C21.78 65.6838 16.56 59.0638 16.56 50.6838C16.56 43.3538 21.95 36.6838 29.27 34.1438V67.6838ZM40.81 68.2838H33.92C33.37 68.2838 32.82 68.2838 32.29 68.2038V33.3138C32.8653 33.203 33.4462 33.1229 34.03 33.0738H40.83L40.81 68.2838ZM40.81 30.0538H31.81C29.4313 30.0489 27.1501 29.1077 25.46 27.4338C24.4056 26.3905 23.6254 25.1029 23.1888 23.6854C22.7522 22.2678 22.6727 20.7643 22.9574 19.3087C23.2421 17.853 23.8821 16.4902 24.8206 15.3416C25.7591 14.193 26.9669 13.2942 28.3366 12.725C29.7063 12.1559 31.1954 11.9341 32.6716 12.0794C34.1477 12.2246 35.565 12.7325 36.7975 13.5577C38.03 14.383 39.0394 15.5001 39.7359 16.8096C40.4325 18.1191 40.7946 19.5805 40.79 21.0638L40.81 30.0538ZM43.81 21.0538C43.81 19.2737 44.3378 17.5337 45.3268 16.0536C46.3157 14.5736 47.7213 13.42 49.3658 12.7389C51.0104 12.0577 52.82 11.8794 54.5658 12.2267C56.3116 12.574 57.9153 13.4311 59.174 14.6898C60.4326 15.9485 61.2898 17.5521 61.6371 19.298C61.9843 21.0438 61.8061 22.8534 61.1249 24.4979C60.4437 26.1425 59.2902 27.5481 57.8101 28.537C56.3301 29.5259 54.59 30.0538 52.81 30.0538H43.81V21.0538ZM55.92 56.0838L53.82 58.2038C55.1628 59.5406 56.8317 60.5031 58.6612 60.996C60.4908 61.4889 62.4174 61.4951 64.25 61.0138C62.5752 63.0824 60.4987 64.7903 58.1459 66.0347C55.793 67.279 53.2125 68.0339 50.56 68.2538H43.81V33.0638H50.62C52.9356 33.0197 55.236 33.4456 57.3823 34.3157C59.5286 35.1859 61.4762 36.4822 63.1073 38.1264C64.7384 39.7706 66.0191 41.7285 66.8721 43.8816C67.7251 46.0348 68.1326 48.3386 68.07 50.6538C68.0731 52.5423 67.7343 54.4159 67.07 56.1838C65.5724 57.638 63.5618 58.4431 61.4745 58.4244C59.3871 58.4057 57.3913 57.5646 55.92 56.0838V56.0838Z" fill="black"/>
</svg>
