<svg width="80" height="80" viewBox="0 0 80 80" fill="none" xmlns="http://www.w3.org/2000/svg">
<path d="M67.9699 11.0901H10.9199V68.1401H67.9699V11.0901Z" fill="white"/>
<path d="M22.6899 31.8101V29.3201H24.1699V21.1801H22.6899V19.3101L24.0499 18.6901H27.6699V29.3201H29.1099V31.8101H22.6899Z" fill="black"/>
<path d="M21.0898 51.59C21.123 50.9895 21.2743 50.4015 21.5352 49.8597C21.7961 49.3178 22.1614 48.8328 22.6101 48.4324C23.0588 48.032 23.5821 47.7241 24.1501 47.5263C24.718 47.3286 25.3194 47.2449 25.9198 47.28C28.8098 47.28 30.4098 49.06 30.4098 51.44C30.4098 55.01 25.4598 55.8 24.7298 58.15H27.9198V56.77H30.5498V60.64H21.0098V58.36C22.6598 53.93 27.2598 53.44 27.2598 51.44C27.2636 51.246 27.2262 51.0534 27.15 50.875C27.0739 50.6965 26.9606 50.5363 26.8179 50.4049C26.6751 50.2734 26.5061 50.1739 26.322 50.1127C26.1378 50.0515 25.9428 50.0302 25.7498 50.05C25.5072 50.0603 25.269 50.1184 25.049 50.2212C24.829 50.3239 24.6315 50.4692 24.4679 50.6486C24.3043 50.828 24.1778 51.038 24.0958 51.2665C24.0137 51.495 23.9777 51.7375 23.9898 51.98L21.0898 51.59Z" fill="black"/>
<path d="M49.46 57.6101L52.46 56.6901C52.61 57.5701 53.06 58.2301 54.03 58.2301C54.234 58.244 54.4387 58.2135 54.6297 58.1404C54.8207 58.0674 54.9936 57.9537 55.1363 57.8072C55.279 57.6607 55.3882 57.4849 55.4561 57.292C55.5241 57.0991 55.5493 56.8937 55.53 56.6901C55.53 55.5301 54.7 54.9501 53.36 54.9501H52.89V52.9201H53.38C54.76 52.9201 55.38 52.3001 55.38 51.2901C55.3917 51.1071 55.3643 50.9238 55.2996 50.7522C55.2349 50.5807 55.1344 50.4249 55.0048 50.2953C54.8751 50.1656 54.7194 50.0651 54.5478 50.0004C54.3763 49.9357 54.1929 49.9083 54.01 49.9201C53.22 49.9201 52.7 50.4801 52.55 51.4701L49.72 50.6601C49.9324 49.662 50.4992 48.7747 51.3155 48.1625C52.1318 47.5502 53.1424 47.2545 54.16 47.3301C57.04 47.3301 58.52 48.8701 58.52 51.1901C58.5505 51.8032 58.368 52.408 58.0035 52.9019C57.639 53.3959 57.1148 53.7485 56.52 53.9001C57.1975 54.0374 57.8011 54.4188 58.2159 54.9719C58.6307 55.525 58.8279 56.2112 58.77 56.9001C58.77 59.2601 57.1 60.9601 53.98 60.9601C51.45 60.9201 49.92 59.6501 49.46 57.6101Z" fill="black"/>
<path d="M68.7699 11.2101H39.1899V39.8701H68.7699V11.2101Z" fill="#FF9515"/>
<path d="M10 10V69.74H69.74V10H10ZM66.92 38.47H41.27V12.8H66.92V38.47ZM38.47 12.8V38.47H12.8V12.8H38.47ZM12.8 41.27H38.47V66.92H12.8V41.27ZM41.27 66.92V41.27H66.92V66.92H41.27Z" fill="black"/>
</svg>
