<svg width="80" height="80" viewBox="0 0 80 80" fill="none" xmlns="http://www.w3.org/2000/svg">
<path d="M46.8751 60.6361C45.1901 62.3032 42.9154 63.2384 40.5451 63.2384C38.1747 63.2384 35.9 62.3032 34.2151 60.6361L32.6051 59.0261C30.0962 60.064 27.3996 60.5714 24.6851 60.5161C25.6833 63.9482 27.773 66.9614 30.6374 69.0993C33.5018 71.2373 36.985 72.3834 40.5592 72.3642C44.1335 72.345 47.6041 71.1615 50.4454 68.9928C53.2866 66.8242 55.3437 63.7887 56.3051 60.3461C53.66 60.3983 51.0314 59.9188 48.5751 58.9361L46.8751 60.6361Z" fill="#47A590"/>
<path d="M67.5048 28.6861C65.5368 26.7339 63.1035 25.3159 60.4348 24.5661C60.4813 27.278 59.9813 29.9715 58.9648 32.4861L60.6548 34.1761C62.322 35.8611 63.2571 38.1357 63.2571 40.5061C63.2571 42.8765 62.322 45.1511 60.6548 46.8361L59.0048 48.4861C59.9605 50.8572 60.4527 53.3896 60.4548 55.9461C60.4598 56.016 60.4598 56.0862 60.4548 56.1561C63.2149 55.3722 65.7213 53.8787 67.7245 51.8245C69.7276 49.7703 71.1575 47.227 71.8717 44.4481C72.5859 41.6692 72.5595 38.7516 71.7951 35.9861C71.0306 33.2206 69.5549 30.7037 67.5148 28.6861H67.5048Z" fill="#47A590"/>
<path d="M21.9351 48.3661L20.3951 46.8761C18.7279 45.1911 17.7928 42.9165 17.7928 40.5461C17.7928 38.1758 18.7279 35.9011 20.3951 34.2161L21.9651 32.6461C20.9557 30.2188 20.439 27.615 20.4451 24.9861V24.7761C17.0086 25.7524 13.9842 27.8228 11.8308 30.6732C9.6773 33.5237 8.51221 36.9987 8.51221 40.5711C8.51221 44.1436 9.6773 47.6186 11.8308 50.469C13.9842 53.3195 17.0086 55.3899 20.4451 56.3661C20.4451 56.2361 20.4451 56.1161 20.4451 55.9861C20.4353 53.3728 20.9416 50.7833 21.9351 48.3661V48.3661Z" fill="#47A590"/>
<path d="M32.5452 22.0361L34.1952 20.3861C35.025 19.5522 36.0114 18.8904 37.0977 18.4389C38.184 17.9874 39.3488 17.7549 40.5252 17.7549C41.7016 17.7549 42.8665 17.9874 43.9528 18.4389C45.0391 18.8904 46.0254 19.5522 46.8552 20.3861L48.3452 21.8761C50.842 20.8434 53.5237 20.3329 56.2252 20.3761C55.4559 17.7271 54.0242 15.318 52.0652 13.3761C50.0343 11.3482 47.508 9.88725 44.7373 9.13862C41.9667 8.38998 39.0484 8.3797 36.2725 9.1088C33.4967 9.8379 30.9601 11.281 28.9149 13.2945C26.8698 15.3081 25.3874 17.8219 24.6152 20.5861H24.9452C27.5485 20.5737 30.1294 21.0661 32.5452 22.0361V22.0361Z" fill="#47A590"/>
<path d="M24.0449 24.1461C24.0449 24.4061 24.0449 24.6761 24.0449 24.9461C24.044 26.5967 24.2901 28.2382 24.7749 29.8161L29.7749 24.8161C27.9196 24.2557 25.9795 24.0289 24.0449 24.1461V24.1461Z" fill="white"/>
<path d="M51.375 56.1161C53.1533 56.6329 55.0054 56.8492 56.855 56.7561C56.855 56.4861 56.855 56.2161 56.855 55.9461C56.8554 54.3688 56.6298 52.7995 56.185 51.2861L51.375 56.1161Z" fill="white"/>
<path d="M56.8753 23.9661C54.9544 23.8714 53.0318 24.1151 51.1953 24.6861L56.1953 29.6861C56.7552 27.8339 56.9854 25.8978 56.8753 23.9661V23.9661Z" fill="white"/>
<path d="M24.0551 56.9261C25.9859 57.0221 27.9186 56.7784 29.7651 56.2061L24.7651 51.2061C24.2999 52.7568 24.0641 54.3672 24.0651 55.9861C24.0251 56.2761 24.0351 56.5961 24.0551 56.9261Z" fill="white"/>
<path d="M45.185 23.5161L45.125 23.4461V23.5461L45.185 23.5161Z" fill="#54E984"/>
<path d="M45.3653 57.3161L45.2653 57.2461L45.1353 57.5561L45.3653 57.3161Z" fill="#54E984"/>
<path d="M52.0649 44.3361C51.1589 43.4396 50.1522 42.6511 49.0649 41.9861C48.7545 43.7392 47.919 45.3567 46.669 46.6246C45.419 47.8924 43.8135 48.7508 42.0649 49.0861C42.7324 50.1592 43.5245 51.1494 44.4249 52.0361C45.49 53.0863 46.6946 53.9848 48.0049 54.7061L49.7149 52.9861L52.7149 49.9861L54.7149 47.9861C54.0014 46.6548 53.1098 45.4268 52.0649 44.3361V44.3361Z" fill="#54E984"/>
<path d="M53.9651 32.2861L48.4251 26.7461L47.8051 26.1261C45.394 27.4852 43.3727 29.4411 41.9351 31.8061C43.7093 32.1086 45.3476 32.9491 46.6283 34.2137C47.909 35.4782 48.7701 37.1059 49.0951 38.8761C51.438 37.4346 53.3728 35.4172 54.7151 33.0161L53.9651 32.2861Z" fill="#54E984"/>
<path d="M36.4951 28.8761C35.4752 27.8746 34.3289 27.0106 33.0851 26.3061L32.3251 27.0761L26.3251 33.0761L26.2451 33.1561C27.5924 35.4966 29.5037 37.463 31.8051 38.8761C32.1262 37.1201 32.9748 35.5037 34.238 34.2424C35.5011 32.981 37.1187 32.1346 38.8751 31.8161C38.1986 30.747 37.3999 29.7603 36.4951 28.8761V28.8761Z" fill="#54E984"/>
<path d="M31.8051 41.9861C29.4623 43.4408 27.5283 45.4677 26.1851 47.8761L26.5851 48.2761L32.4851 54.1661L33.1151 54.8061C34.4006 54.0792 35.5814 53.181 36.6251 52.1361C37.5143 51.2288 38.2961 50.2222 38.9551 49.1361C37.171 48.8281 35.526 47.9754 34.2459 46.6953C32.9657 45.4151 32.1131 43.7701 31.8051 41.9861V41.9861Z" fill="#54E984"/>
<path d="M40.5251 21.1561C39.0512 21.1591 37.6384 21.745 36.5951 22.7861L35.7051 23.6761C36.8959 24.4366 38.0051 25.3179 39.0151 26.3061C39.4951 26.7861 39.9451 27.3061 40.3851 27.8161C40.8055 27.2839 41.2563 26.7764 41.7351 26.2961C42.7719 25.258 43.9187 24.3359 45.1551 23.5461V23.4461L44.4851 22.7861C43.9655 22.2661 43.348 21.8543 42.6683 21.5745C41.9886 21.2947 41.2601 21.1525 40.5251 21.1561Z" fill="#B5DD35"/>
<path d="M40.5154 53.0861C40.0923 53.6128 39.6416 54.1169 39.1654 54.5961C38.128 55.6434 36.9776 56.5724 35.7354 57.3661L36.5954 58.2361C37.6405 59.273 39.0531 59.8548 40.5254 59.8548C41.9976 59.8548 43.4102 59.273 44.4554 58.2361L45.1353 57.5561L45.2654 57.2461C44.0434 56.4795 42.9069 55.5844 41.8754 54.5761C41.3964 54.1034 40.9425 53.606 40.5154 53.0861Z" fill="#B5DD35"/>
<path d="M57.375 45.3161L58.255 44.4361C59.2919 43.391 59.8737 41.9784 59.8737 40.5061C59.8737 39.0339 59.2919 37.6213 58.255 36.5761L57.325 35.6561C56.186 37.4761 54.7532 39.0947 53.085 40.4461C53.6116 40.8729 54.1156 41.3269 54.595 41.8061C55.6509 42.8676 56.5835 44.0451 57.375 45.3161V45.3161Z" fill="#B5DD35"/>
<path d="M23.625 35.7561L22.795 36.5761C21.7581 37.6213 21.1763 39.0339 21.1763 40.5061C21.1763 41.9784 21.7581 43.391 22.795 44.4361L23.585 45.2161C24.365 43.9839 25.2771 42.8405 26.305 41.8061C26.7844 41.3268 27.2884 40.8729 27.815 40.4461C27.2884 40.0193 26.7844 39.5654 26.305 39.0861C25.2991 38.0716 24.401 36.9557 23.625 35.7561V35.7561Z" fill="#B5DD35"/>
<path d="M45.8751 40.4461C45.8751 39.3722 45.5567 38.3223 44.96 37.4294C44.3634 36.5364 43.5153 35.8404 42.5231 35.4294C41.5309 35.0185 40.4391 34.9109 39.3858 35.1205C38.3325 35.33 37.365 35.8471 36.6056 36.6065C35.8462 37.3659 35.329 38.3335 35.1195 39.3868C34.91 40.4401 35.0175 41.5319 35.4285 42.5241C35.8395 43.5163 36.5354 44.3643 37.4284 44.961C38.3214 45.5577 39.3712 45.8761 40.4451 45.8761C41.8853 45.8761 43.2664 45.304 44.2847 44.2857C45.3031 43.2674 45.8751 41.8862 45.8751 40.4461Z" fill="white"/>
<path d="M70.0151 26.1461C67.2774 23.4203 63.8007 21.5568 60.0151 20.7861C59.0484 16.3009 56.5689 12.2845 52.9925 9.41033C49.4161 6.53619 44.9602 4.97911 40.3721 5.00021C35.7839 5.02131 31.3425 6.61931 27.7927 9.52622C24.2429 12.4331 21.8005 16.4722 20.8751 20.9661C16.3857 21.9124 12.3582 24.3734 9.4678 27.9365C6.57743 31.4996 5 35.9481 5 40.5361C5 45.1241 6.57743 49.5726 9.4678 53.1357C12.3582 56.6988 16.3857 59.1598 20.8751 60.1061C21.8232 64.6125 24.2974 68.6536 27.8798 71.5471C31.4623 74.4406 35.9335 76.0092 40.5384 75.988C45.1434 75.9669 49.6 74.3573 53.1557 71.431C56.7114 68.5047 59.1484 64.441 60.0551 59.9261C63.5922 59.1885 66.8634 57.5065 69.5211 55.0587C72.1789 52.611 74.1239 49.489 75.1496 46.0244C76.1752 42.5598 76.2431 38.8821 75.3461 35.3821C74.4491 31.882 72.6206 28.6903 70.0551 26.1461H70.0151ZM56.1551 29.6761L51.1551 24.6761C53.0049 24.1038 54.9414 23.8634 56.8751 23.9661C56.971 25.8969 56.7273 27.8295 56.1551 29.6761ZM32.4851 54.1161L26.5851 48.2261L26.1851 47.8261C27.5351 45.436 29.4685 43.4268 31.8051 41.9861C32.1206 43.7628 32.9765 45.399 34.2561 46.6714C35.5356 47.9438 37.1766 48.7906 38.9551 49.0961C38.2961 50.1822 37.5143 51.1888 36.6251 52.0961C35.5814 53.141 34.4006 54.0392 33.1151 54.7661L32.4851 54.1161ZM40.3851 27.8161C39.9451 27.2861 39.4951 26.8161 39.0151 26.3061C38.0051 25.318 36.8959 24.4366 35.7051 23.6761L36.5951 22.7861C37.1106 22.2691 37.7232 21.8588 38.3975 21.5789C39.0719 21.299 39.7949 21.155 40.5251 21.155C41.2552 21.155 41.9782 21.299 42.6526 21.5789C43.327 21.8588 43.9395 22.2691 44.4551 22.7861L45.1251 23.4461L45.1851 23.5161C43.9487 24.306 42.8019 25.2281 41.7651 26.2661C41.2751 26.7553 40.8143 27.2728 40.3851 27.8161V27.8161ZM45.8751 40.4461C45.877 41.5205 45.5603 42.5713 44.9648 43.4656C44.3694 44.3598 43.522 45.0574 42.53 45.4699C41.5379 45.8824 40.4458 45.9914 39.3919 45.783C38.3379 45.5746 37.3694 45.0582 36.609 44.2992C35.8486 43.5402 35.3305 42.5727 35.1201 41.5191C34.9098 40.4655 35.0168 39.3732 35.4274 38.3804C35.8381 37.3877 36.5341 36.539 37.4273 35.9419C38.3205 35.3448 39.3707 35.0261 40.4451 35.0261C41.8835 35.0261 43.2631 35.5968 44.2811 36.613C45.2992 37.6291 45.8724 39.0077 45.8751 40.4461V40.4461ZM36.4951 28.8761C37.4001 29.7796 38.1956 30.7865 38.8651 31.8761C37.1187 32.1926 35.5092 33.0309 34.2488 34.2805C32.9885 35.5302 32.1364 37.1325 31.8051 38.8761C29.4951 37.4531 27.5798 35.4725 26.2351 33.1161L26.3151 33.0361L32.3151 27.0361L33.0751 26.2661C34.3247 26.9822 35.4745 27.8598 36.4951 28.8761ZM39.1651 54.6161C39.6414 54.1369 40.092 53.6329 40.5151 53.1061C40.9427 53.6192 41.3966 54.1099 41.8751 54.5761C42.9035 55.5838 44.0366 56.4789 45.2551 57.2461L45.3551 57.3161L45.1251 57.5561L44.4451 58.2361C43.3999 59.273 41.9873 59.8548 40.5151 59.8548C39.0428 59.8548 37.6302 59.273 36.5851 58.2361L35.7251 57.3661C36.9708 56.5731 38.1246 55.644 39.1651 54.5961V54.6161ZM44.4051 52.0561C43.5047 51.1694 42.7125 50.1792 42.0451 49.1061C43.7936 48.7708 45.3991 47.9124 46.6491 46.6446C47.8991 45.3768 48.7346 43.7592 49.0451 42.0061C51.4223 43.4447 53.3942 45.4648 54.7751 47.8761L52.7751 49.8761L49.7751 52.8761L48.0651 54.5961C46.7332 53.915 45.5017 53.0535 44.4051 52.0361V52.0561ZM49.0951 38.8761C48.7757 37.1004 47.9171 35.4661 46.6359 34.1958C45.3548 32.9254 43.7134 32.0805 41.9351 31.7761C43.3727 29.411 45.394 27.4552 47.8051 26.0961L48.4251 26.7161L53.9651 32.2561L54.7151 33.0161C53.3728 35.4172 51.438 37.4346 49.0951 38.8761V38.8761ZM28.8751 13.3361C31.9561 10.2566 36.1339 8.52662 40.4901 8.52662C44.8462 8.52662 49.0241 10.2566 52.1051 13.3361C54.064 15.278 55.4958 17.6872 56.2651 20.3361C53.5473 20.3001 50.8513 20.8243 48.3451 21.8761L46.8751 20.3861C46.0453 19.5522 45.0589 18.8905 43.9726 18.4389C42.8863 17.9874 41.7215 17.755 40.5451 17.755C39.3687 17.755 38.2038 17.9874 37.1175 18.4389C36.0312 18.8905 35.0449 19.5522 34.2151 20.3861L32.5651 22.0361C30.152 21.0524 27.5709 20.5464 24.9651 20.5461H24.6351C25.3972 17.8149 26.8587 15.3297 28.8751 13.3361V13.3361ZM24.0451 24.1461C25.9681 24.0433 27.8943 24.2803 29.7351 24.8461L24.7351 29.8461C24.2502 28.2682 24.0042 26.6267 24.0051 24.9761C24.0251 24.6761 24.0351 24.4061 24.0451 24.1461ZM20.4451 55.9461C20.4451 56.0761 20.4451 56.1961 20.4451 56.3261C17.0086 55.3498 13.9842 53.2795 11.8308 50.429C9.67729 47.5786 8.5122 44.1036 8.5122 40.5311C8.5122 36.9586 9.67729 33.4836 11.8308 30.6332C13.9842 27.7827 17.0086 25.7123 20.4451 24.7361V24.9461C20.439 27.5749 20.9557 30.1787 21.9651 32.6061L20.3951 34.1761C18.7279 35.8611 17.7928 38.1357 17.7928 40.5061C17.7928 42.8764 18.7279 45.1511 20.3951 46.8361L21.9351 48.3661C20.9468 50.7708 20.4405 53.3462 20.4451 55.9461V55.9461ZM22.7951 44.4361C21.7582 43.3909 21.1763 41.9783 21.1763 40.5061C21.1763 39.0338 21.7582 37.6212 22.7951 36.5761L23.6251 35.7561C24.401 36.9556 25.2992 38.0716 26.3051 39.0861C26.7844 39.5653 27.2884 40.0193 27.8151 40.4461C27.2884 40.8729 26.7844 41.3268 26.3051 41.8061C25.2771 42.8405 24.3651 43.9839 23.5851 45.2161L22.7951 44.4361ZM24.0251 55.9461C24.0241 54.3271 24.2599 52.7168 24.7251 51.1661L29.7251 56.1661C27.8785 56.7383 25.9459 56.982 24.0151 56.8861C24.0351 56.5961 24.0251 56.2761 24.0251 55.9461V55.9461ZM52.0251 67.5561C50.0075 69.5734 47.4996 71.031 44.7481 71.7854C41.9965 72.5398 39.096 72.5652 36.3316 71.859C33.5673 71.1527 31.0343 69.7393 28.9818 67.7575C26.9293 65.7758 25.4278 63.2939 24.6251 60.5561C27.3396 60.6114 30.0362 60.104 32.5451 59.0661L34.1551 60.6761C35.8401 62.3432 38.1147 63.2784 40.4851 63.2784C42.8554 63.2784 45.1301 62.3432 46.8151 60.6761L48.5151 58.9761C50.9714 59.9588 53.6 60.4383 56.2451 60.3861C55.4899 63.0951 54.0505 65.5643 52.0651 67.5561H52.0251ZM56.8751 56.7561C55.0255 56.8492 53.1734 56.6329 51.3951 56.1161L56.2251 51.2861C56.6631 52.8004 56.882 54.3697 56.8751 55.9461C56.8751 56.2161 56.8751 56.4861 56.8751 56.7561ZM57.3951 45.3161C56.6036 44.0451 55.671 42.8676 54.6151 41.8061C54.1357 41.3268 53.6317 40.8729 53.1051 40.4461C54.7733 39.0946 56.2061 37.476 57.3451 35.6561L58.2751 36.5761C59.312 37.6212 59.8938 39.0338 59.8938 40.5061C59.8938 41.9783 59.312 43.3909 58.2751 44.4361L57.3951 45.3161ZM67.6351 51.8761C65.6476 53.8924 63.1698 55.3571 60.4451 56.1261C60.45 56.0562 60.45 55.986 60.4451 55.9161C60.443 53.3596 59.9507 50.8272 58.9951 48.4561L60.6551 46.8761C62.3222 45.1911 63.2573 42.9164 63.2573 40.5461C63.2573 38.1757 62.3222 35.9011 60.6551 34.2161L58.9651 32.5261C59.9816 30.0115 60.4815 27.318 60.4351 24.6061C63.1675 25.3908 65.6493 26.8714 67.6378 28.9031C69.6262 30.9348 71.0531 33.4479 71.7788 36.1965C72.5045 38.9452 72.5042 41.8351 71.7778 44.5836C71.0515 47.3321 69.624 49.8449 67.6351 51.8761V51.8761Z" fill="black"/>
</svg>
