<svg width="80" height="80" viewBox="0 0 80 80" fill="none" xmlns="http://www.w3.org/2000/svg">
<rect width="80" height="80" rx="13" fill="#00A2B3"/>
<path d="M2.71997 40.4233L21.65 51.2933L40.51 40.3433L2.71997 40.4233Z" fill="#0098A0"/>
<path d="M40.5098 40.6433L40.5798 62.3233L40.5098 40.6433L21.8398 73.1833L40.7698 62.2533L59.3498 72.7033L40.5998 40.4933L40.5098 40.6433Z" fill="#28D9DD"/>
<path d="M59.7701 51.2233L40.8101 40.3433H40.6801L40.6001 40.4933L59.3501 72.7033L59.7701 51.2233Z" fill="#1EBC69"/>
<path d="M40.6001 40.4333L40.4401 18.3733L40.5101 40.1733L40.6201 40.3733L40.7701 40.1933L59.1001 8.24332L40.6501 18.3233L21.6001 7.84332L40.3601 40.0833L40.6001 40.4333Z" fill="#1EBC69"/>
<path d="M40.5099 40.3433L21.6499 51.2933L21.7199 51.3233L21.8399 73.1833L40.6399 40.4233L40.5099 40.3433Z" fill="#0098A0"/>
<path d="M21.8198 8.11334L21.8798 29.6233L40.5798 40.3533L21.8198 8.11334Z" fill="#28D9DD"/>
<path d="M40.36 40.0833L21.66 29.3633L2.71997 40.4233L40.58 40.3533L40.36 40.0833Z" fill="#1EBC69"/>
<path d="M59.2201 8.11334L40.6001 40.4333L59.8601 51.0133L77.3201 39.8633L59.4901 29.5133L59.2201 8.11334Z" fill="#0098A0"/>
<path d="M39.97 47.3433C43.8194 47.3433 46.94 44.2227 46.94 40.3733C46.94 36.5239 43.8194 33.4033 39.97 33.4033C36.1206 33.4033 33 36.5239 33 40.3733C33 44.2227 36.1206 47.3433 39.97 47.3433Z" fill="white"/>
<path d="M77.87 39.3833C77.808 39.1942 77.7311 39.0103 77.64 38.8333C77.3737 38.3383 76.9757 37.9264 76.49 37.6433L60.49 28.4433L60.42 10.0033C60.4181 9.46829 60.273 8.94349 60 8.48335C59.7234 8.02625 59.3344 7.64756 58.87 7.38335C58.7483 7.31334 58.6212 7.25315 58.49 7.20335C58.0659 7.04195 57.6116 6.97532 57.159 7.00815C56.7063 7.04097 56.2664 7.17244 55.87 7.39335L39.87 16.6533L23.87 7.48335C23.4059 7.21208 22.8775 7.07047 22.34 7.07335C21.8133 7.08035 21.297 7.22146 20.84 7.48335V7.48335C20.3848 7.75314 20.0091 8.13853 19.7509 8.60042C19.4927 9.06231 19.3613 9.58427 19.37 10.1133V28.5733L3.46 37.8433C3.05174 38.0922 2.70888 38.4351 2.46 38.8433C2.19265 39.2645 2.03455 39.7457 2 40.2433C2 40.3233 2 40.3933 2 40.4733C2 40.5533 2 40.6333 2 40.7033C2.02825 41.1011 2.13712 41.489 2.32 41.8433C2.57649 42.3584 2.97568 42.7888 3.47 43.0833L19.47 52.2833L19.52 70.7333C19.5199 71.2639 19.6606 71.7851 19.9276 72.2436C20.1946 72.7021 20.5785 73.0816 21.04 73.3433V73.3433C21.4953 73.6095 22.0127 73.7509 22.54 73.7533V73.7533C23.0751 73.7514 23.5999 73.6064 24.06 73.3333L40.06 64.0733L56.06 73.2533C56.4648 73.4715 56.9113 73.6011 57.37 73.6333C57.533 73.6483 57.697 73.6483 57.86 73.6333C58.2919 73.6003 58.7115 73.474 59.09 73.2633C59.454 73.0407 59.7673 72.7443 60.01 72.3933L60.07 72.3233C60.4092 71.825 60.5904 71.2361 60.59 70.6333V52.1733L76.49 42.9133C76.9238 42.6735 77.2914 42.33 77.56 41.9133C77.6921 41.6987 77.7931 41.4664 77.86 41.2233C77.947 40.9379 77.9941 40.6417 78 40.3433C78.0059 40.0186 77.9621 39.6948 77.87 39.3833V39.3833ZM57.42 12.9633L57.47 28.4133L46.38 34.8533C46.0772 34.4908 45.7425 34.1562 45.38 33.8533L57.42 12.9633ZM41.42 19.2533L54.8 11.5033L42.8 32.4033C42.3455 32.2379 41.8769 32.1141 41.4 32.0333V19.2533H41.42ZM38.42 19.2533V32.0533C37.9493 32.1421 37.4875 32.2727 37.04 32.4433L24.95 11.5333L38.42 19.2533ZM34.42 33.9733C34.0826 34.2833 33.7685 34.6175 33.48 34.9733L22.42 28.5633V13.1433L34.42 33.9733ZM20.87 31.1733L31.96 37.5333C31.8038 37.9593 31.6834 38.3974 31.6 38.8433H7.72L20.87 31.1733ZM20.87 49.6333L7.39 41.8333H31.64C31.7187 42.2966 31.8392 42.7518 32 43.1933L20.87 49.6333ZM22.48 67.7633V52.2733C22.48 52.2733 22.48 52.2733 22.48 52.1933L33.48 45.8033C33.7877 46.1614 34.122 46.4957 34.48 46.8033L22.48 67.7633ZM25.12 69.2033L37.12 48.3433C37.5359 48.4962 37.9642 48.6132 38.4 48.6933V61.5333L25.12 69.2033ZM41.51 61.4733L41.37 61.4133V48.7133C41.829 48.6345 42.2805 48.5175 42.72 48.3633L54.69 69.0133L41.51 61.4733ZM45.38 46.9133C45.7694 46.584 46.1306 46.2227 46.46 45.8333L57.53 52.1833V67.9133L45.38 46.9133ZM59.04 49.5733L47.95 43.2033C48.1121 42.7588 48.2326 42.3001 48.31 41.8333H72.31L59.04 49.5733ZM48.3 38.8333C48.2112 38.3562 48.0807 37.8877 47.91 37.4333L58.91 31.0333L72.38 38.8033L48.3 38.8333Z" fill="black"/>
<path d="M39.97 45.8433C42.991 45.8433 45.44 43.3943 45.44 40.3733C45.44 37.3523 42.991 34.9033 39.97 34.9033C36.949 34.9033 34.5 37.3523 34.5 40.3733C34.5 43.3943 36.949 45.8433 39.97 45.8433Z" fill="white"/>
</svg>
